HIERARCHY
ROOT Joint1
{
	OFFSET 0.000000 0.000000 0.000000
	CHANNELS 6 Xposition Yposition Zposition Xrotation Yrotation Zrotation
	JOINT Joint2
	{
		OFFSET -0.000000 0.000000 1.456275
		CHANNELS 6 Xposition Yposition Zposition Xrotation Yrotation Zrotation
		JOINT Joint3
		{
			OFFSET -0.000000 0.000002 1.471446
			CHANNELS 6 Xposition Yposition Zposition Xrotation Yrotation Zrotation
			JOINT Joint4
			{
				OFFSET 0.625745 0.000000 0.917755
				CHANNELS 6 Xposition Yposition Zposition Xrotation Yrotation Zrotation
				JOINT Joint5
				{
					OFFSET -0.629534 0.000001 0.940221
					CHANNELS 6 Xposition Yposition Zposition Xrotation Yrotation Zrotation
					JOINT Joint6
					{
						OFFSET -0.000001 0.113772 1.960660
						CHANNELS 6 Xposition Yposition Zposition Xrotation Yrotation Zrotation
						JOINT Joint7
						{
							OFFSET -0.669733 -0.113771 0.388340
							CHANNELS 6 Xposition Yposition Zposition Xrotation Yrotation Zrotation
							End Site
							{
								OFFSET 0.005509 0.005509 0.438980
							}
						}
					}
				}
			}
		}
	}
}
MOTION
Frames: 27
Frame Time: 0.041667
0.000000 0.000000 0.000000 -0.000000 1.019410 -70.629156 -0.000000 0.000000 1.456275 0.000000 13.493943 -0.000001 -0.000000 0.000002 1.471445 -0.000001 -1.133456 46.785652 0.625744 0.000000 0.917755 0.000003 97.177548 -0.000000 -0.629533 0.000001 0.940221 -0.000000 1.709735 1.325360 -0.000001 0.113772 1.960660 -88.303882 130.698579 0.000005 -0.669733 -0.113771 0.388339 0.309017 2.626916 49.346447 
0.000000 0.000000 0.000000 -0.000000 1.019410 -72.591025 -0.000000 0.000000 1.456275 0.000001 15.118134 -0.000000 -0.000000 0.000002 1.471446 -0.000002 -1.133455 48.086116 0.625745 0.000000 0.917755 0.000018 96.126348 -0.000010 -0.629534 0.000001 0.940221 -0.000001 1.709734 1.362473 -0.000001 0.113772 1.960660 -88.303875 131.829727 0.000002 -0.669734 -0.113771 0.388340 0.311347 2.584804 46.969633 
0.000000 0.000000 0.000000 -0.000000 1.019410 -74.552908 -0.000000 0.000000 1.456275 0.000000 16.742342 -0.000001 -0.000000 0.000002 1.471446 -0.000002 -1.133456 49.386598 0.625745 0.000000 0.917755 -0.000005 95.075140 -0.000028 -0.629533 0.000001 0.940221 -0.000002 1.709736 1.399590 -0.000000 0.113772 1.960661 -88.303875 132.960861 0.000000 -0.669733 -0.113771 0.388340 0.311922 2.542633 44.592878 
0.000000 0.000000 0.000000 -0.000000 1.019410 -76.514825 -0.000000 -0.000000 1.456275 0.000000 18.366573 0.000000 -0.000000 0.000002 1.471446 -0.000002 -1.133457 50.687100 0.625745 0.000000 0.917755 0.000036 94.023913 -0.000032 -0.629534 0.000001 0.940221 0.000004 1.709738 1.436709 -0.000000 0.113772 1.960660 -88.303882 134.092036 0.000002 -0.669733 -0.113771 0.388340 0.310746 2.500469 42.216170 
0.000000 0.000000 0.000000 -0.000000 1.019410 -78.476661 -0.000000 0.000000 1.456275 -0.000001 19.990738 0.000000 -0.000001 0.000002 1.471445 -0.000002 -1.133455 51.987544 0.625745 0.000000 0.917755 0.000053 92.972733 -0.000015 -0.629534 0.000001 0.940221 0.000003 1.709737 1.473823 -0.000001 0.113772 1.960661 -88.303882 135.223156 0.000002 -0.669733 -0.113771 0.388341 0.307823 2.458391 39.839629 
0.000000 0.000000 0.000000 -0.000000 1.019410 -80.438387 -0.000000 0.000000 1.456275 -0.000001 21.614813 0.000001 -0.000000 0.000002 1.471446 -0.000002 -1.133455 53.287917 0.625745 0.000000 0.917755 0.000057 91.921615 -0.000048 -0.629533 0.000001 0.940221 -0.000001 1.709737 1.510939 -0.000001 0.113772 1.960660 -88.303882 136.354208 0.000000 -0.669733 -0.113771 0.388340 0.303158 2.416478 37.463301 
0.000000 0.000000 0.000000 -0.000000 1.019410 -82.400413 -0.000000 -0.000000 1.456275 0.000000 23.239136 -0.000000 -0.000000 0.000002 1.471446 -0.000002 -1.133455 54.588494 0.625745 0.000000 0.917755 0.000040 90.870326 0.000161 -0.629533 0.000001 0.940221 0.000001 1.709736 1.548053 -0.000001 0.113772 1.960661 -88.303882 137.485424 0.000001 -0.669733 -0.113771 0.388340 0.296750 2.374782 35.086668 
0.000000 0.000000 0.000000 -0.000000 1.019410 -84.362856 -0.000000 0.000000 1.456275 0.000000 24.863801 -0.000000 -0.000001 0.000002 1.471446 -0.000003 -1.133455 55.889345 0.625745 0.000000 0.917755 -0.000599 89.818818 0.000173 -0.629534 0.000001 0.940221 -0.000002 1.709736 1.585183 -0.000001 0.113772 1.960660 -88.303882 138.616900 0.000002 -0.669733 -0.113771 0.388340 0.288618 2.333385 32.709605 
0.000000 0.000000 0.000000 -0.000000 1.019410 -86.324165 -0.000000 -0.000000 1.456275 -0.000000 26.487532 0.000000 -0.000000 0.000002 1.471446 -0.000002 -1.133457 57.189440 0.625745 0.000001 0.917755 -0.000009 88.767912 0.000045 -0.629534 0.000001 0.940221 0.000001 1.709736 1.622289 -0.000001 0.113772 1.960661 -88.303875 139.747719 0.000003 -0.669733 -0.113771 0.388341 0.278784 2.292378 30.333970 
0.000000 0.000000 0.000000 -0.000000 1.019410 -88.283938 -0.000000 0.000000 1.456275 0.000000 28.109990 0.000000 -0.000000 0.000002 1.471446 -0.000002 -1.133452 58.488508 0.625745 0.000001 0.917755 -0.000037 87.717838 0.000035 -0.629534 0.000001 0.940221 0.000001 1.709736 1.659366 -0.000001 0.113772 1.960660 -88.303882 140.877651 0.000002 -0.669733 -0.113771 0.388340 0.267266 2.251849 27.960262 
0.000000 0.000000 0.000000 -0.000000 1.019410 -90.247918 -0.000000 0.000000 1.456275 0.000000 29.735929 0.000000 -0.000000 0.000002 1.471445 -0.000003 -1.133455 59.790383 0.625744 0.000000 0.917755 -0.000062 86.665504 0.000024 -0.629534 0.000001 0.940221 0.000000 1.709736 1.696523 -0.000001 0.113772 1.960661 -88.303875 142.010001 0.000001 -0.669734 -0.113771 0.388340 0.254046 2.211747 25.581507 
0.000000 0.000000 0.000000 -0.000000 1.019410 -92.217649 -0.000000 -0.000000 1.456275 0.000000 31.366643 0.000000 -0.000001 0.000002 1.471446 -0.000003 -1.133456 61.096069 0.625745 0.000001 0.917755 -0.000025 85.610083 0.000041 -0.629533 0.000001 0.940221 -0.000002 1.709735 1.733785 -0.000001 0.113772 1.960660 -88.303875 143.145670 0.000001 -0.669733 -0.113771 0.388341 0.239130 2.172110 23.195852 
0.000000 0.000000 0.000000 -0.000000 1.019410 -94.171670 -0.000000 0.000000 1.456275 0.000000 32.984329 0.000000 -0.000000 0.000002 1.471446 -0.000003 -1.133457 62.391333 0.625745 0.000001 0.917755 -0.000016 84.563097 0.000015 -0.629534 0.000001 0.940221 -0.000001 1.709736 1.770753 -0.000001 0.113772 1.960660 -88.303882 144.272283 0.000002 -0.669733 -0.113771 0.388340 0.222712 2.133438 20.829266 
0.000000 0.000000 0.000000 -0.000000 1.019410 -96.104211 -0.000000 -0.000000 1.456275 -0.000000 34.584236 0.000000 -0.000000 0.000002 1.471445 -0.000003 -1.133455 63.672362 0.625745 0.000000 0.917755 -0.000009 83.527613 0.000001 -0.629534 0.000001 0.940221 0.000002 1.709736 1.807317 -0.000001 0.113772 1.960660 -88.303882 145.386505 0.000001 -0.669733 -0.113771 0.388340 0.204918 2.095889 18.488760 
0.000000 0.000000 0.000000 -0.000000 1.019410 -98.095423 -0.000000 0.000000 1.456275 -0.000001 36.232726 -0.000001 -0.000001 0.000002 1.471446 -0.000003 -1.133457 64.992269 0.625745 0.000001 0.917755 -0.000027 82.460689 0.000014 -0.629534 0.000001 0.940221 -0.000005 1.709738 1.844988 -0.000000 0.113772 1.960661 -88.303882 146.534564 0.000006 -0.669733 -0.113771 0.388340 0.184996 2.057994 16.077220 
0.000000 0.000000 0.000000 -0.000000 1.019410 -100.166773 -0.000000 -0.000000 1.456275 -0.000000 37.947561 0.000001 -0.000001 0.000002 1.471446 -0.000003 -1.133456 66.365315 0.625745 0.000000 0.917755 -0.000018 81.350818 0.000018 -0.629534 0.000001 0.940221 0.000001 1.709736 1.884177 -0.000001 0.113772 1.960660 -88.303875 147.728823 0.000002 -0.669733 -0.113771 0.388340 0.162594 2.019497 13.568677 
0.000000 0.000000 0.000000 -0.000000 1.019410 -102.019175 -0.000000 0.000000 1.456275 -0.000000 39.481130 0.000000 -0.000000 0.000002 1.471446 -0.000003 -1.133454 67.593225 0.625745 0.000000 0.917755 -0.000011 80.358275 0.000001 -0.629534 0.000001 0.940221 0.000001 1.709737 1.919224 -0.000001 0.113773 1.960660 -88.303882 148.796846 0.000004 -0.669734 -0.113771 0.388340 0.141152 1.985930 11.325336 
0.000000 0.000000 0.000000 -0.000000 1.019410 -103.402008 -0.000000 0.000000 1.456275 -0.000000 40.625941 -0.000001 -0.000001 0.000002 1.471446 -0.000002 -1.133453 68.509864 0.625745 0.000001 0.917755 0.000006 79.617336 0.000015 -0.629534 0.000001 0.940221 -0.000001 1.709736 1.945379 -0.000001 0.113773 1.960661 -88.303882 149.594148 0.000002 -0.669733 -0.113771 0.388340 0.124298 1.961433 9.650693 
0.000000 0.000000 0.000000 -0.000000 1.019410 -104.579103 -0.000000 -0.000000 1.456275 -0.000002 41.600435 0.000001 -0.000000 0.000002 1.471446 -0.000004 -1.133456 69.290131 0.625745 0.000001 0.917755 -0.000019 78.986630 -0.000008 -0.629534 0.000001 0.940221 -0.000000 1.709733 1.967651 -0.000001 0.113772 1.960660 -88.303882 150.272795 0.000005 -0.669733 -0.113771 0.388341 0.109393 1.940974 8.225192 
0.000000 0.000000 0.000000 -0.000000 1.019410 -105.942928 -0.000000 -0.000000 1.456275 0.000001 42.729520 0.000000 -0.000001 0.000002 1.471446 -0.000003 -1.133456 70.194168 0.625745 0.000001 0.917755 -0.000004 78.255868 0.000005 -0.629534 0.000001 0.940221 -0.000003 1.709737 1.993451 -0.000001 0.113772 1.960661 -88.303882 151.059127 0.000003 -0.669733 -0.113771 0.388340 0.091494 1.917746 6.573599 
0.000000 0.000000 0.000000 -0.000000 1.019410 -107.769197 -0.000000 0.000000 1.456275 0.000001 44.241454 -0.000001 -0.000001 0.000002 1.471446 -0.000003 -1.133455 71.404751 0.625745 0.000001 0.917755 -0.000016 77.277320 0.000008 -0.629534 0.000001 0.940221 -0.000001 1.709736 2.028003 -0.000001 0.113772 1.960661 -88.303882 152.112097 0.000002 -0.669733 -0.113771 0.388340 0.066487 1.887461 4.362001 
0.000000 0.000000 0.000000 -0.000000 1.019410 -109.866680 -0.000000 0.000000 1.456275 -0.000001 45.977920 0.000001 -0.000000 0.000002 1.471446 -0.000005 -1.133452 72.795118 0.625745 0.000001 0.917755 -0.000018 76.153461 0.000011 -0.629534 0.000001 0.940221 0.000001 1.709736 2.067685 -0.000001 0.113772 1.960660 -88.303882 153.321423 0.000001 -0.669733 -0.113771 0.388340 0.036354 1.853902 1.821984 
0.000000 0.000000 0.000000 -0.000000 1.019410 -111.945796 -0.000000 -0.000000 1.456275 -0.000000 47.699179 -0.000001 -0.000001 0.000002 1.471446 -0.000005 -1.133456 74.173300 0.625745 0.000000 0.917755 -0.000007 75.039436 0.000010 -0.629533 0.000001 0.940221 0.000002 1.709734 2.107022 -0.000001 0.113772 1.960661 -88.303882 154.520148 0.000000 -0.669733 -0.113771 0.388340 0.005044 1.821989 -0.695756 
0.000000 0.000000 0.000000 -0.000000 1.019410 -113.790432 -0.000000 0.000000 1.456275 -0.000000 49.226317 0.000001 -0.000000 0.000002 1.471446 -0.000005 -1.133451 75.396061 0.625745 0.000001 0.917755 0.000000 74.051053 0.000010 -0.629533 0.000001 0.940220 0.000003 1.709736 2.141919 -0.000001 0.113772 1.960661 -88.303882 155.583704 0.000000 -0.669734 -0.113771 0.388340 -0.023886 1.794849 -2.929532 
0.000000 0.000000 0.000000 -0.000000 1.019410 -115.268567 -0.000000 -0.000000 1.456275 -0.000002 50.450038 -0.000000 -0.000000 0.000002 1.471446 -0.000004 -1.133454 76.375872 0.625745 0.000001 0.917755 -0.000006 73.259045 0.000003 -0.629534 0.000001 0.940221 0.000001 1.709738 2.169880 -0.000001 0.113772 1.960660 -88.303882 156.435934 0.000004 -0.669733 -0.113771 0.388340 -0.047816 1.773923 -4.719470 
0.000000 0.000000 0.000000 -0.000000 1.019410 -116.510979 -0.000000 0.000000 1.456275 -0.000000 51.478617 0.000001 -0.000000 0.000002 1.471446 -0.000007 -1.133448 77.199443 0.625745 0.000000 0.917755 0.000003 72.593327 0.000000 -0.629534 0.000001 0.940221 0.000003 1.709737 2.193389 -0.000001 0.113772 1.960661 -88.303882 157.152271 0.000004 -0.669733 -0.113771 0.388340 -0.068429 1.756924 -6.223961 
0.000000 0.000000 0.000000 -0.000000 1.019410 -117.714185 -0.000000 0.000000 1.456275 0.000002 52.474711 0.000002 -0.000000 0.000002 1.471446 -0.000004 -1.133452 77.997011 0.625745 0.000001 0.917755 -0.000005 71.948653 0.000017 -0.629534 0.000001 0.940221 0.000001 1.709735 2.216152 -0.000001 0.113772 1.960660 -88.303882 157.845986 0.000001 -0.669733 -0.113771 0.388340 -0.088812 1.740982 -7.680950 
